<svg xmlns="http://www.w3.org/2000/svg" viewBox="0 0 557.47 33.6"><g id="Layer_2" data-name="Layer 2"><g id="Layer_1-2" data-name="Layer 1"><polygon points="28.51 0 23.04 0 4.8 18.79 4.8 0 0 0 0 33.6 4.8 33.6 4.8 24.91 10.96 18.65 23.81 33.6 29.42 33.6 14.17 15.13 28.51 0"/><path d="M187.3,0,172.08,33.6H177l3.69-8.4h17.87l3.69,8.4h5L192.05,0Zm-4.9,21.36,7.25-16.49,7.24,16.49Z"/><polygon points="375.74 0 364.95 17.73 354.19 0 349.06 0 362.4 21.9 362.4 33.6 367.15 33.6 367.15 21.97 380.5 0 375.74 0"/><path d="M552.43,33.6h5L542.21,0h-4.75L522.24,33.6h4.94l3.69-8.4h17.87ZM532.56,21.36l7.25-16.49,7.24,16.49Z"/></g></g></svg>